<mxfile host="Electron" modified="2024-02-14T09:00:45.011Z" agent="Mozilla/5.0 (X11; Linux x86_64) AppleWebKit/537.36 (KHTML, like Gecko) draw.io/23.0.2 Chrome/120.0.6099.109 Electron/28.1.0 Safari/537.36" etag="bFBHJHgC8TbnLTCedbN5" version="23.0.2" type="device">
  <diagram name="Page-1" id="8SsjrMAy4OLU90WWe0t3">
    <mxGraphModel dx="2443" dy="2077" grid="1" gridSize="10" guides="1" tooltips="1" connect="1" arrows="1" fold="1" page="1" pageScale="1" pageWidth="850" pageHeight="1100" math="0" shadow="0">
      <root>
        <mxCell id="0" />
        <mxCell id="1" parent="0" />
        <mxCell id="-wOafuGMNbNYGkKjtve2-38" value="" style="rounded=0;whiteSpace=wrap;html=1;" parent="1" vertex="1">
          <mxGeometry x="628.75" y="680" width="950" height="635" as="geometry" />
        </mxCell>
        <mxCell id="AkErmzsPLvzYnSsby9Ff-113" value="" style="rounded=1;whiteSpace=wrap;html=1;" parent="1" vertex="1">
          <mxGeometry x="962.5" y="1035" width="120" height="80" as="geometry" />
        </mxCell>
        <mxCell id="-wOafuGMNbNYGkKjtve2-39" style="edgeStyle=orthogonalEdgeStyle;rounded=0;orthogonalLoop=1;jettySize=auto;html=1;" parent="1" source="AkErmzsPLvzYnSsby9Ff-37" target="-wOafuGMNbNYGkKjtve2-38" edge="1">
          <mxGeometry relative="1" as="geometry" />
        </mxCell>
        <mxCell id="AkErmzsPLvzYnSsby9Ff-37" value="" style="rounded=0;whiteSpace=wrap;html=1;" parent="1" vertex="1">
          <mxGeometry x="743.75" y="-50" width="720" height="570" as="geometry" />
        </mxCell>
        <mxCell id="AkErmzsPLvzYnSsby9Ff-76" value="" style="shape=note;whiteSpace=wrap;html=1;backgroundOutline=1;darkOpacity=0.05;" parent="1" vertex="1">
          <mxGeometry x="973.75" y="45" width="380" height="440" as="geometry" />
        </mxCell>
        <mxCell id="-wOafuGMNbNYGkKjtve2-36" style="edgeStyle=orthogonalEdgeStyle;rounded=0;orthogonalLoop=1;jettySize=auto;html=1;" parent="1" source="AkErmzsPLvzYnSsby9Ff-24" target="AkErmzsPLvzYnSsby9Ff-37" edge="1">
          <mxGeometry relative="1" as="geometry" />
        </mxCell>
        <mxCell id="AkErmzsPLvzYnSsby9Ff-24" value="" style="rounded=0;whiteSpace=wrap;html=1;" parent="1" vertex="1">
          <mxGeometry x="-130" y="30" width="530" height="410" as="geometry" />
        </mxCell>
        <mxCell id="AkErmzsPLvzYnSsby9Ff-16" style="edgeStyle=orthogonalEdgeStyle;rounded=0;orthogonalLoop=1;jettySize=auto;html=1;" parent="1" source="AkErmzsPLvzYnSsby9Ff-1" target="AkErmzsPLvzYnSsby9Ff-15" edge="1">
          <mxGeometry relative="1" as="geometry" />
        </mxCell>
        <mxCell id="AkErmzsPLvzYnSsby9Ff-1" value="&lt;font style=&quot;font-size: 19px;&quot;&gt;&lt;b&gt;Engine&lt;/b&gt;&lt;/font&gt;" style="whiteSpace=wrap;html=1;aspect=fixed;" parent="1" vertex="1">
          <mxGeometry x="40" y="200" width="80" height="80" as="geometry" />
        </mxCell>
        <mxCell id="AkErmzsPLvzYnSsby9Ff-15" value="&lt;font size=&quot;1&quot; style=&quot;&quot;&gt;&lt;b style=&quot;font-size: 14px;&quot;&gt;Document&lt;/b&gt;&lt;/font&gt;" style="ellipse;whiteSpace=wrap;html=1;aspect=fixed;" parent="1" vertex="1">
          <mxGeometry x="240" y="200" width="80" height="80" as="geometry" />
        </mxCell>
        <mxCell id="AkErmzsPLvzYnSsby9Ff-17" value="&lt;b&gt;Query&lt;/b&gt;" style="text;html=1;align=center;verticalAlign=middle;resizable=0;points=[];autosize=1;strokeColor=none;fillColor=none;" parent="1" vertex="1">
          <mxGeometry x="150" y="208" width="60" height="30" as="geometry" />
        </mxCell>
        <mxCell id="AkErmzsPLvzYnSsby9Ff-18" value="" style="html=1;labelBackgroundColor=#ffffff;startArrow=none;startFill=0;startSize=6;endArrow=classic;endFill=1;endSize=6;jettySize=auto;orthogonalLoop=1;strokeWidth=1;dashed=1;fontSize=14;rounded=0;exitX=0;exitY=1;exitDx=0;exitDy=0;entryX=1.012;entryY=0.851;entryDx=0;entryDy=0;entryPerimeter=0;" parent="1" source="AkErmzsPLvzYnSsby9Ff-15" target="AkErmzsPLvzYnSsby9Ff-1" edge="1">
          <mxGeometry width="60" height="60" relative="1" as="geometry">
            <mxPoint x="510" y="430" as="sourcePoint" />
            <mxPoint x="140" y="268" as="targetPoint" />
          </mxGeometry>
        </mxCell>
        <mxCell id="AkErmzsPLvzYnSsby9Ff-20" value="Information" style="swimlane;fontStyle=0;childLayout=stackLayout;horizontal=1;startSize=30;horizontalStack=0;resizeParent=1;resizeParentMax=0;resizeLast=0;collapsible=1;marginBottom=0;whiteSpace=wrap;html=1;" parent="1" vertex="1">
          <mxGeometry x="150" y="305" width="110" height="110" as="geometry" />
        </mxCell>
        <mxCell id="AkErmzsPLvzYnSsby9Ff-21" value="Triples" style="text;strokeColor=none;fillColor=none;align=left;verticalAlign=middle;spacingLeft=4;spacingRight=4;overflow=hidden;points=[[0,0.5],[1,0.5]];portConstraint=eastwest;rotatable=0;whiteSpace=wrap;html=1;" parent="AkErmzsPLvzYnSsby9Ff-20" vertex="1">
          <mxGeometry y="30" width="110" height="30" as="geometry" />
        </mxCell>
        <mxCell id="AkErmzsPLvzYnSsby9Ff-22" value="Location of a shape index&lt;br&gt;(if exist)" style="text;strokeColor=none;fillColor=none;align=left;verticalAlign=middle;spacingLeft=4;spacingRight=4;overflow=hidden;points=[[0,0.5],[1,0.5]];portConstraint=eastwest;rotatable=0;whiteSpace=wrap;html=1;" parent="AkErmzsPLvzYnSsby9Ff-20" vertex="1">
          <mxGeometry y="60" width="110" height="50" as="geometry" />
        </mxCell>
        <mxCell id="AkErmzsPLvzYnSsby9Ff-26" value="" style="whiteSpace=wrap;html=1;aspect=fixed;" parent="1" vertex="1">
          <mxGeometry x="40" y="160" width="20" height="20" as="geometry" />
        </mxCell>
        <mxCell id="AkErmzsPLvzYnSsby9Ff-27" value="" style="whiteSpace=wrap;html=1;aspect=fixed;" parent="1" vertex="1">
          <mxGeometry x="60" y="160" width="20" height="20" as="geometry" />
        </mxCell>
        <mxCell id="AkErmzsPLvzYnSsby9Ff-28" value="" style="whiteSpace=wrap;html=1;aspect=fixed;" parent="1" vertex="1">
          <mxGeometry x="80" y="160" width="20" height="20" as="geometry" />
        </mxCell>
        <mxCell id="AkErmzsPLvzYnSsby9Ff-29" value="" style="whiteSpace=wrap;html=1;aspect=fixed;" parent="1" vertex="1">
          <mxGeometry x="100" y="160" width="20" height="20" as="geometry" />
        </mxCell>
        <mxCell id="AkErmzsPLvzYnSsby9Ff-30" value="&lt;b&gt;Link Queue&lt;/b&gt;" style="text;html=1;strokeColor=none;fillColor=none;align=center;verticalAlign=middle;whiteSpace=wrap;rounded=0;" parent="1" vertex="1">
          <mxGeometry x="40" y="130" width="80" height="30" as="geometry" />
        </mxCell>
        <mxCell id="-wOafuGMNbNYGkKjtve2-30" style="edgeStyle=orthogonalEdgeStyle;rounded=0;orthogonalLoop=1;jettySize=auto;html=1;entryX=0;entryY=1;entryDx=0;entryDy=0;" parent="1" source="AkErmzsPLvzYnSsby9Ff-31" target="-wOafuGMNbNYGkKjtve2-2" edge="1">
          <mxGeometry relative="1" as="geometry" />
        </mxCell>
        <mxCell id="AkErmzsPLvzYnSsby9Ff-31" value="&lt;b&gt;Reachability criteria&lt;/b&gt;" style="ellipse;shape=cloud;whiteSpace=wrap;html=1;" parent="1" vertex="1">
          <mxGeometry x="20" y="321.25" width="95" height="57.5" as="geometry" />
        </mxCell>
        <mxCell id="AkErmzsPLvzYnSsby9Ff-34" value="&lt;b&gt;&lt;font style=&quot;font-size: 17px;&quot;&gt;Shape index location don&#39;t exist&lt;/font&gt;&lt;/b&gt;" style="text;html=1;align=center;verticalAlign=middle;resizable=0;points=[];autosize=1;strokeColor=none;fillColor=none;" parent="1" vertex="1">
          <mxGeometry x="115" y="-120" width="280" height="30" as="geometry" />
        </mxCell>
        <mxCell id="AkErmzsPLvzYnSsby9Ff-35" value="&lt;font style=&quot;font-size: 16px;&quot;&gt;&lt;b&gt;Query the next document in the link queue&lt;/b&gt;&lt;/font&gt;" style="rounded=0;whiteSpace=wrap;html=1;" parent="1" vertex="1">
          <mxGeometry x="-130" y="30" width="530" height="60" as="geometry" />
        </mxCell>
        <mxCell id="-wOafuGMNbNYGkKjtve2-35" style="edgeStyle=orthogonalEdgeStyle;rounded=0;orthogonalLoop=1;jettySize=auto;html=1;" parent="1" source="AkErmzsPLvzYnSsby9Ff-39" target="AkErmzsPLvzYnSsby9Ff-76" edge="1">
          <mxGeometry relative="1" as="geometry" />
        </mxCell>
        <mxCell id="AkErmzsPLvzYnSsby9Ff-39" value="&lt;font style=&quot;font-size: 19px;&quot;&gt;&lt;b&gt;Engine&lt;/b&gt;&lt;/font&gt;" style="whiteSpace=wrap;html=1;aspect=fixed;" parent="1" vertex="1">
          <mxGeometry x="783.75" y="225" width="80" height="80" as="geometry" />
        </mxCell>
        <mxCell id="AkErmzsPLvzYnSsby9Ff-52" value="&lt;font style=&quot;font-size: 16px;&quot;&gt;&lt;b&gt;Dereference the shape index&lt;/b&gt;&lt;/font&gt;" style="rounded=0;whiteSpace=wrap;html=1;" parent="1" vertex="1">
          <mxGeometry x="743.75" y="-50" width="720" height="60" as="geometry" />
        </mxCell>
        <mxCell id="AkErmzsPLvzYnSsby9Ff-54" value="&lt;font style=&quot;font-size: 15px;&quot;&gt;&lt;b&gt;Shape i&lt;/b&gt;&lt;/font&gt;" style="swimlane;fontStyle=0;childLayout=stackLayout;horizontal=1;startSize=30;horizontalStack=0;resizeParent=1;resizeParentMax=0;resizeLast=0;collapsible=1;marginBottom=0;whiteSpace=wrap;html=1;" parent="1" vertex="1">
          <mxGeometry x="1023.75" y="115" width="140" height="150" as="geometry" />
        </mxCell>
        <mxCell id="AkErmzsPLvzYnSsby9Ff-55" value="&lt;b&gt;Constraint i&lt;/b&gt;" style="text;strokeColor=none;fillColor=none;align=left;verticalAlign=middle;spacingLeft=4;spacingRight=4;overflow=hidden;points=[[0,0.5],[1,0.5]];portConstraint=eastwest;rotatable=0;whiteSpace=wrap;html=1;" parent="AkErmzsPLvzYnSsby9Ff-54" vertex="1">
          <mxGeometry y="30" width="140" height="30" as="geometry" />
        </mxCell>
        <mxCell id="AkErmzsPLvzYnSsby9Ff-56" value="&lt;b&gt;Constraint i+1&lt;/b&gt;" style="text;strokeColor=none;fillColor=none;align=left;verticalAlign=middle;spacingLeft=4;spacingRight=4;overflow=hidden;points=[[0,0.5],[1,0.5]];portConstraint=eastwest;rotatable=0;whiteSpace=wrap;html=1;" parent="AkErmzsPLvzYnSsby9Ff-54" vertex="1">
          <mxGeometry y="60" width="140" height="30" as="geometry" />
        </mxCell>
        <mxCell id="AkErmzsPLvzYnSsby9Ff-63" value="&lt;b&gt;...&lt;/b&gt;" style="text;strokeColor=none;fillColor=none;align=center;verticalAlign=middle;spacingLeft=4;spacingRight=4;overflow=hidden;points=[[0,0.5],[1,0.5]];portConstraint=eastwest;rotatable=0;whiteSpace=wrap;html=1;" parent="AkErmzsPLvzYnSsby9Ff-54" vertex="1">
          <mxGeometry y="90" width="140" height="30" as="geometry" />
        </mxCell>
        <mxCell id="AkErmzsPLvzYnSsby9Ff-57" value="&lt;b&gt;Constraint i+k&lt;/b&gt;" style="text;strokeColor=none;fillColor=none;align=left;verticalAlign=middle;spacingLeft=4;spacingRight=4;overflow=hidden;points=[[0,0.5],[1,0.5]];portConstraint=eastwest;rotatable=0;whiteSpace=wrap;html=1;" parent="AkErmzsPLvzYnSsby9Ff-54" vertex="1">
          <mxGeometry y="120" width="140" height="30" as="geometry" />
        </mxCell>
        <mxCell id="AkErmzsPLvzYnSsby9Ff-62" value="&lt;font style=&quot;font-size: 22px;&quot;&gt;&lt;b&gt;...&lt;/b&gt;&lt;/font&gt;" style="text;html=1;align=center;verticalAlign=middle;resizable=0;points=[];autosize=1;strokeColor=none;fillColor=none;" parent="1" vertex="1">
          <mxGeometry x="1033.75" y="305" width="40" height="40" as="geometry" />
        </mxCell>
        <mxCell id="AkErmzsPLvzYnSsby9Ff-69" value="Set of IRIS" style="ellipse;whiteSpace=wrap;html=1;" parent="1" vertex="1">
          <mxGeometry x="1123.75" y="157" width="120" height="80" as="geometry" />
        </mxCell>
        <mxCell id="AkErmzsPLvzYnSsby9Ff-70" value="&lt;font style=&quot;font-size: 15px;&quot;&gt;&lt;b&gt;Shape i+n&lt;/b&gt;&lt;/font&gt;" style="swimlane;fontStyle=0;childLayout=stackLayout;horizontal=1;startSize=30;horizontalStack=0;resizeParent=1;resizeParentMax=0;resizeLast=0;collapsible=1;marginBottom=0;whiteSpace=wrap;html=1;" parent="1" vertex="1">
          <mxGeometry x="1133.75" y="325" width="140" height="150" as="geometry" />
        </mxCell>
        <mxCell id="AkErmzsPLvzYnSsby9Ff-71" value="&lt;b&gt;Constraint i&lt;/b&gt;" style="text;strokeColor=none;fillColor=none;align=left;verticalAlign=middle;spacingLeft=4;spacingRight=4;overflow=hidden;points=[[0,0.5],[1,0.5]];portConstraint=eastwest;rotatable=0;whiteSpace=wrap;html=1;" parent="AkErmzsPLvzYnSsby9Ff-70" vertex="1">
          <mxGeometry y="30" width="140" height="30" as="geometry" />
        </mxCell>
        <mxCell id="AkErmzsPLvzYnSsby9Ff-72" value="&lt;b&gt;Constraint i+1&lt;/b&gt;" style="text;strokeColor=none;fillColor=none;align=left;verticalAlign=middle;spacingLeft=4;spacingRight=4;overflow=hidden;points=[[0,0.5],[1,0.5]];portConstraint=eastwest;rotatable=0;whiteSpace=wrap;html=1;" parent="AkErmzsPLvzYnSsby9Ff-70" vertex="1">
          <mxGeometry y="60" width="140" height="30" as="geometry" />
        </mxCell>
        <mxCell id="AkErmzsPLvzYnSsby9Ff-73" value="&lt;b&gt;...&lt;/b&gt;" style="text;strokeColor=none;fillColor=none;align=center;verticalAlign=middle;spacingLeft=4;spacingRight=4;overflow=hidden;points=[[0,0.5],[1,0.5]];portConstraint=eastwest;rotatable=0;whiteSpace=wrap;html=1;" parent="AkErmzsPLvzYnSsby9Ff-70" vertex="1">
          <mxGeometry y="90" width="140" height="30" as="geometry" />
        </mxCell>
        <mxCell id="AkErmzsPLvzYnSsby9Ff-74" value="&lt;b&gt;Constraint i+k&lt;/b&gt;" style="text;strokeColor=none;fillColor=none;align=left;verticalAlign=middle;spacingLeft=4;spacingRight=4;overflow=hidden;points=[[0,0.5],[1,0.5]];portConstraint=eastwest;rotatable=0;whiteSpace=wrap;html=1;" parent="AkErmzsPLvzYnSsby9Ff-70" vertex="1">
          <mxGeometry y="120" width="140" height="30" as="geometry" />
        </mxCell>
        <mxCell id="AkErmzsPLvzYnSsby9Ff-75" value="Set of IRIS" style="ellipse;whiteSpace=wrap;html=1;" parent="1" vertex="1">
          <mxGeometry x="1233.75" y="367" width="120" height="80" as="geometry" />
        </mxCell>
        <mxCell id="AkErmzsPLvzYnSsby9Ff-77" value="&lt;b&gt;&lt;font style=&quot;font-size: 24px;&quot;&gt;Shape index&lt;/font&gt;&lt;/b&gt;" style="text;html=1;align=center;verticalAlign=middle;resizable=0;points=[];autosize=1;strokeColor=none;fillColor=none;" parent="1" vertex="1">
          <mxGeometry x="1073.75" y="55" width="160" height="40" as="geometry" />
        </mxCell>
        <mxCell id="-wOafuGMNbNYGkKjtve2-21" style="edgeStyle=orthogonalEdgeStyle;rounded=0;orthogonalLoop=1;jettySize=auto;html=1;entryX=1;entryY=0.5;entryDx=0;entryDy=0;" parent="1" source="AkErmzsPLvzYnSsby9Ff-91" target="AkErmzsPLvzYnSsby9Ff-113" edge="1">
          <mxGeometry relative="1" as="geometry">
            <Array as="points">
              <mxPoint x="1272.75" y="1075" />
            </Array>
          </mxGeometry>
        </mxCell>
        <mxCell id="-wOafuGMNbNYGkKjtve2-22" style="edgeStyle=orthogonalEdgeStyle;rounded=0;orthogonalLoop=1;jettySize=auto;html=1;entryX=1;entryY=0.5;entryDx=0;entryDy=0;" parent="1" source="AkErmzsPLvzYnSsby9Ff-91" target="-wOafuGMNbNYGkKjtve2-11" edge="1">
          <mxGeometry relative="1" as="geometry">
            <Array as="points">
              <mxPoint x="1272.75" y="1195" />
            </Array>
          </mxGeometry>
        </mxCell>
        <mxCell id="AkErmzsPLvzYnSsby9Ff-91" value="" style="rounded=0;whiteSpace=wrap;html=1;" parent="1" vertex="1">
          <mxGeometry x="1032.5" y="755" width="480" height="230" as="geometry" />
        </mxCell>
        <mxCell id="AkErmzsPLvzYnSsby9Ff-86" style="edgeStyle=orthogonalEdgeStyle;rounded=0;orthogonalLoop=1;jettySize=auto;html=1;entryX=0;entryY=0.5;entryDx=0;entryDy=0;" parent="1" source="AkErmzsPLvzYnSsby9Ff-79" target="AkErmzsPLvzYnSsby9Ff-82" edge="1">
          <mxGeometry relative="1" as="geometry" />
        </mxCell>
        <mxCell id="AkErmzsPLvzYnSsby9Ff-79" value="&lt;b&gt;Query&lt;/b&gt;" style="ellipse;shape=cloud;whiteSpace=wrap;html=1;" parent="1" vertex="1">
          <mxGeometry x="1042.5" y="845" width="90" height="55" as="geometry" />
        </mxCell>
        <mxCell id="AkErmzsPLvzYnSsby9Ff-80" value="&lt;font style=&quot;font-size: 15px;&quot;&gt;&lt;b&gt;Shape i&lt;/b&gt;&lt;/font&gt;" style="swimlane;fontStyle=0;childLayout=stackLayout;horizontal=1;startSize=30;horizontalStack=0;resizeParent=1;resizeParentMax=0;resizeLast=0;collapsible=1;marginBottom=0;whiteSpace=wrap;html=1;" parent="1" vertex="1">
          <mxGeometry x="1272.5" y="797.5" width="140" height="150" as="geometry" />
        </mxCell>
        <mxCell id="AkErmzsPLvzYnSsby9Ff-81" value="&lt;b&gt;Constraint i&lt;/b&gt;" style="text;strokeColor=none;fillColor=none;align=left;verticalAlign=middle;spacingLeft=4;spacingRight=4;overflow=hidden;points=[[0,0.5],[1,0.5]];portConstraint=eastwest;rotatable=0;whiteSpace=wrap;html=1;" parent="AkErmzsPLvzYnSsby9Ff-80" vertex="1">
          <mxGeometry y="30" width="140" height="30" as="geometry" />
        </mxCell>
        <mxCell id="AkErmzsPLvzYnSsby9Ff-82" value="&lt;b&gt;Constraint i+1&lt;/b&gt;" style="text;strokeColor=none;fillColor=none;align=left;verticalAlign=middle;spacingLeft=4;spacingRight=4;overflow=hidden;points=[[0,0.5],[1,0.5]];portConstraint=eastwest;rotatable=0;whiteSpace=wrap;html=1;" parent="AkErmzsPLvzYnSsby9Ff-80" vertex="1">
          <mxGeometry y="60" width="140" height="30" as="geometry" />
        </mxCell>
        <mxCell id="AkErmzsPLvzYnSsby9Ff-83" value="&lt;b&gt;...&lt;/b&gt;" style="text;strokeColor=none;fillColor=none;align=center;verticalAlign=middle;spacingLeft=4;spacingRight=4;overflow=hidden;points=[[0,0.5],[1,0.5]];portConstraint=eastwest;rotatable=0;whiteSpace=wrap;html=1;" parent="AkErmzsPLvzYnSsby9Ff-80" vertex="1">
          <mxGeometry y="90" width="140" height="30" as="geometry" />
        </mxCell>
        <mxCell id="AkErmzsPLvzYnSsby9Ff-84" value="&lt;b&gt;Constraint i+k&lt;/b&gt;" style="text;strokeColor=none;fillColor=none;align=left;verticalAlign=middle;spacingLeft=4;spacingRight=4;overflow=hidden;points=[[0,0.5],[1,0.5]];portConstraint=eastwest;rotatable=0;whiteSpace=wrap;html=1;" parent="AkErmzsPLvzYnSsby9Ff-80" vertex="1">
          <mxGeometry y="120" width="140" height="30" as="geometry" />
        </mxCell>
        <mxCell id="AkErmzsPLvzYnSsby9Ff-85" value="Set of IRIS" style="ellipse;whiteSpace=wrap;html=1;" parent="1" vertex="1">
          <mxGeometry x="1372.5" y="839.5" width="120" height="80" as="geometry" />
        </mxCell>
        <mxCell id="AkErmzsPLvzYnSsby9Ff-87" value="&lt;b&gt;&lt;font style=&quot;font-size: 15px;&quot;&gt;are there an aligment?&lt;/font&gt;&lt;/b&gt;" style="text;html=1;align=center;verticalAlign=middle;resizable=0;points=[];autosize=1;strokeColor=none;fillColor=none;" parent="1" vertex="1">
          <mxGeometry x="1097.5" y="809.5" width="180" height="30" as="geometry" />
        </mxCell>
        <mxCell id="AkErmzsPLvzYnSsby9Ff-99" value="" style="whiteSpace=wrap;html=1;aspect=fixed;" parent="1" vertex="1">
          <mxGeometry x="687.5" y="1075" width="20" height="20" as="geometry" />
        </mxCell>
        <mxCell id="AkErmzsPLvzYnSsby9Ff-100" value="" style="whiteSpace=wrap;html=1;aspect=fixed;" parent="1" vertex="1">
          <mxGeometry x="707.5" y="1075" width="20" height="20" as="geometry" />
        </mxCell>
        <mxCell id="AkErmzsPLvzYnSsby9Ff-101" value="" style="whiteSpace=wrap;html=1;aspect=fixed;" parent="1" vertex="1">
          <mxGeometry x="727.5" y="1075" width="20" height="20" as="geometry" />
        </mxCell>
        <mxCell id="AkErmzsPLvzYnSsby9Ff-102" value="" style="whiteSpace=wrap;html=1;aspect=fixed;" parent="1" vertex="1">
          <mxGeometry x="747.5" y="1075" width="20" height="20" as="geometry" />
        </mxCell>
        <mxCell id="AkErmzsPLvzYnSsby9Ff-103" value="&lt;b&gt;Link Queue&lt;/b&gt;" style="text;html=1;strokeColor=none;fillColor=none;align=center;verticalAlign=middle;whiteSpace=wrap;rounded=0;" parent="1" vertex="1">
          <mxGeometry x="687.5" y="1045" width="80" height="30" as="geometry" />
        </mxCell>
        <mxCell id="AkErmzsPLvzYnSsby9Ff-110" style="edgeStyle=orthogonalEdgeStyle;rounded=0;orthogonalLoop=1;jettySize=auto;html=1;entryX=1;entryY=0.5;entryDx=0;entryDy=0;" parent="1" source="AkErmzsPLvzYnSsby9Ff-105" target="AkErmzsPLvzYnSsby9Ff-102" edge="1">
          <mxGeometry relative="1" as="geometry" />
        </mxCell>
        <mxCell id="AkErmzsPLvzYnSsby9Ff-105" value="" style="whiteSpace=wrap;html=1;aspect=fixed;" parent="1" vertex="1">
          <mxGeometry x="982.5" y="1075" width="20" height="20" as="geometry" />
        </mxCell>
        <mxCell id="AkErmzsPLvzYnSsby9Ff-107" value="" style="whiteSpace=wrap;html=1;aspect=fixed;" parent="1" vertex="1">
          <mxGeometry x="1002.5" y="1075" width="20" height="20" as="geometry" />
        </mxCell>
        <mxCell id="AkErmzsPLvzYnSsby9Ff-108" value="" style="whiteSpace=wrap;html=1;aspect=fixed;" parent="1" vertex="1">
          <mxGeometry x="1022.5" y="1075" width="20" height="20" as="geometry" />
        </mxCell>
        <mxCell id="AkErmzsPLvzYnSsby9Ff-109" value="" style="whiteSpace=wrap;html=1;aspect=fixed;" parent="1" vertex="1">
          <mxGeometry x="1042.5" y="1075" width="20" height="20" as="geometry" />
        </mxCell>
        <mxCell id="AkErmzsPLvzYnSsby9Ff-116" value="&lt;font style=&quot;font-size: 16px;&quot;&gt;&lt;b&gt;Aligned IRIs&lt;/b&gt;&lt;/font&gt;" style="text;html=1;align=center;verticalAlign=middle;resizable=0;points=[];autosize=1;strokeColor=none;fillColor=none;" parent="1" vertex="1">
          <mxGeometry x="962.5" y="1035" width="120" height="30" as="geometry" />
        </mxCell>
        <mxCell id="AkErmzsPLvzYnSsby9Ff-118" value="&lt;font style=&quot;font-size: 14px;&quot;&gt;&lt;b&gt;append&lt;/b&gt;&lt;/font&gt;" style="text;html=1;align=center;verticalAlign=middle;resizable=0;points=[];autosize=1;strokeColor=none;fillColor=none;" parent="1" vertex="1">
          <mxGeometry x="827.5" y="1053" width="70" height="30" as="geometry" />
        </mxCell>
        <mxCell id="-wOafuGMNbNYGkKjtve2-1" value="" style="whiteSpace=wrap;html=1;aspect=fixed;fillColor=#a20025;fontColor=#ffffff;strokeColor=#000000;" parent="1" vertex="1">
          <mxGeometry x="-30" y="245" width="20" height="20" as="geometry" />
        </mxCell>
        <mxCell id="-wOafuGMNbNYGkKjtve2-2" value="" style="whiteSpace=wrap;html=1;aspect=fixed;fillColor=#a20025;fontColor=#ffffff;strokeColor=#000000;" parent="1" vertex="1">
          <mxGeometry x="-10" y="245" width="20" height="20" as="geometry" />
        </mxCell>
        <mxCell id="-wOafuGMNbNYGkKjtve2-5" value="&lt;b&gt;Filtered IRI&lt;/b&gt;" style="text;html=1;strokeColor=none;fillColor=none;align=center;verticalAlign=middle;whiteSpace=wrap;rounded=0;" parent="1" vertex="1">
          <mxGeometry x="-110" y="237" width="80" height="30" as="geometry" />
        </mxCell>
        <mxCell id="-wOafuGMNbNYGkKjtve2-6" value="" style="whiteSpace=wrap;html=1;aspect=fixed;fillColor=#a20025;fontColor=#ffffff;strokeColor=#000000;" parent="1" vertex="1">
          <mxGeometry x="708.75" y="1195" width="20" height="20" as="geometry" />
        </mxCell>
        <mxCell id="-wOafuGMNbNYGkKjtve2-7" value="" style="whiteSpace=wrap;html=1;aspect=fixed;fillColor=#a20025;fontColor=#ffffff;strokeColor=#000000;" parent="1" vertex="1">
          <mxGeometry x="728.75" y="1195" width="20" height="20" as="geometry" />
        </mxCell>
        <mxCell id="-wOafuGMNbNYGkKjtve2-8" value="&lt;b&gt;Filtered IRI&lt;/b&gt;" style="text;html=1;strokeColor=none;fillColor=none;align=center;verticalAlign=middle;whiteSpace=wrap;rounded=0;" parent="1" vertex="1">
          <mxGeometry x="681.25" y="1215" width="80" height="30" as="geometry" />
        </mxCell>
        <mxCell id="-wOafuGMNbNYGkKjtve2-9" value="" style="endArrow=classic;html=1;rounded=0;exitX=0;exitY=0;exitDx=0;exitDy=0;entryX=1;entryY=1;entryDx=0;entryDy=0;" parent="1" source="-wOafuGMNbNYGkKjtve2-7" target="AkErmzsPLvzYnSsby9Ff-100" edge="1">
          <mxGeometry width="50" height="50" relative="1" as="geometry">
            <mxPoint x="705" y="1115" as="sourcePoint" />
            <mxPoint x="755" y="1065" as="targetPoint" />
          </mxGeometry>
        </mxCell>
        <mxCell id="-wOafuGMNbNYGkKjtve2-10" value="&lt;font style=&quot;font-size: 14px;&quot;&gt;&lt;b&gt;Prune&lt;/b&gt;&lt;/font&gt;" style="text;html=1;align=center;verticalAlign=middle;resizable=0;points=[];autosize=1;strokeColor=none;fillColor=none;" parent="1" vertex="1">
          <mxGeometry x="668.75" y="1135" width="60" height="30" as="geometry" />
        </mxCell>
        <mxCell id="-wOafuGMNbNYGkKjtve2-11" value="" style="rounded=1;whiteSpace=wrap;html=1;" parent="1" vertex="1">
          <mxGeometry x="962.5" y="1155" width="120" height="80" as="geometry" />
        </mxCell>
        <mxCell id="-wOafuGMNbNYGkKjtve2-12" value="" style="whiteSpace=wrap;html=1;aspect=fixed;fillColor=#a20025;fontColor=#ffffff;strokeColor=#000000;" parent="1" vertex="1">
          <mxGeometry x="982.5" y="1195" width="20" height="20" as="geometry" />
        </mxCell>
        <mxCell id="-wOafuGMNbNYGkKjtve2-13" value="" style="whiteSpace=wrap;html=1;aspect=fixed;fillColor=#a20025;fontColor=#ffffff;strokeColor=#000000;" parent="1" vertex="1">
          <mxGeometry x="1002.5" y="1195" width="20" height="20" as="geometry" />
        </mxCell>
        <mxCell id="-wOafuGMNbNYGkKjtve2-14" value="" style="whiteSpace=wrap;html=1;aspect=fixed;fillColor=#a20025;fontColor=#ffffff;strokeColor=#000000;" parent="1" vertex="1">
          <mxGeometry x="1022.5" y="1195" width="20" height="20" as="geometry" />
        </mxCell>
        <mxCell id="-wOafuGMNbNYGkKjtve2-15" value="" style="whiteSpace=wrap;html=1;aspect=fixed;fillColor=#a20025;fontColor=#ffffff;strokeColor=#000000;" parent="1" vertex="1">
          <mxGeometry x="1042.5" y="1195" width="20" height="20" as="geometry" />
        </mxCell>
        <mxCell id="-wOafuGMNbNYGkKjtve2-16" value="&lt;font style=&quot;font-size: 16px;&quot;&gt;&lt;b&gt;Filtered IRIs&lt;/b&gt;&lt;/font&gt;" style="text;html=1;align=center;verticalAlign=middle;resizable=0;points=[];autosize=1;strokeColor=none;fillColor=none;" parent="1" vertex="1">
          <mxGeometry x="962.5" y="1155" width="120" height="30" as="geometry" />
        </mxCell>
        <mxCell id="-wOafuGMNbNYGkKjtve2-17" style="edgeStyle=orthogonalEdgeStyle;rounded=0;orthogonalLoop=1;jettySize=auto;html=1;entryX=1;entryY=0.5;entryDx=0;entryDy=0;exitX=0;exitY=0.5;exitDx=0;exitDy=0;" parent="1" source="-wOafuGMNbNYGkKjtve2-12" target="-wOafuGMNbNYGkKjtve2-7" edge="1">
          <mxGeometry relative="1" as="geometry">
            <mxPoint x="993" y="1095" as="sourcePoint" />
            <mxPoint x="778" y="1095" as="targetPoint" />
          </mxGeometry>
        </mxCell>
        <mxCell id="-wOafuGMNbNYGkKjtve2-18" value="&lt;font style=&quot;font-size: 14px;&quot;&gt;&lt;b&gt;append&lt;/b&gt;&lt;/font&gt;" style="text;html=1;align=center;verticalAlign=middle;resizable=0;points=[];autosize=1;strokeColor=none;fillColor=none;" parent="1" vertex="1">
          <mxGeometry x="827.5" y="1165" width="70" height="30" as="geometry" />
        </mxCell>
        <mxCell id="-wOafuGMNbNYGkKjtve2-25" value="&lt;b&gt;add IRIs to queue&lt;/b&gt;" style="text;html=1;align=center;verticalAlign=middle;resizable=0;points=[];autosize=1;strokeColor=none;fillColor=none;" parent="1" vertex="1">
          <mxGeometry x="-130" y="295" width="120" height="30" as="geometry" />
        </mxCell>
        <mxCell id="-wOafuGMNbNYGkKjtve2-28" value="" style="endArrow=none;dashed=1;html=1;dashPattern=1 3;strokeWidth=2;rounded=0;exitX=0.5;exitY=0;exitDx=0;exitDy=0;" parent="1" source="AkErmzsPLvzYnSsby9Ff-20" edge="1">
          <mxGeometry width="50" height="50" relative="1" as="geometry">
            <mxPoint x="160" y="290" as="sourcePoint" />
            <mxPoint x="205" y="270" as="targetPoint" />
          </mxGeometry>
        </mxCell>
        <mxCell id="-wOafuGMNbNYGkKjtve2-31" value="" style="endArrow=classic;html=1;rounded=0;exitX=0;exitY=0;exitDx=0;exitDy=0;entryX=0;entryY=0.5;entryDx=0;entryDy=0;" parent="1" source="-wOafuGMNbNYGkKjtve2-2" target="AkErmzsPLvzYnSsby9Ff-26" edge="1">
          <mxGeometry width="50" height="50" relative="1" as="geometry">
            <mxPoint x="160" y="290" as="sourcePoint" />
            <mxPoint x="210" y="240" as="targetPoint" />
            <Array as="points">
              <mxPoint x="-10" y="170" />
            </Array>
          </mxGeometry>
        </mxCell>
        <mxCell id="-wOafuGMNbNYGkKjtve2-32" value="&lt;b&gt;add non filtered IRI&lt;br&gt;&lt;/b&gt;" style="text;html=1;align=center;verticalAlign=middle;resizable=0;points=[];autosize=1;strokeColor=none;fillColor=none;" parent="1" vertex="1">
          <mxGeometry x="-135" y="182" width="130" height="30" as="geometry" />
        </mxCell>
        <mxCell id="-wOafuGMNbNYGkKjtve2-33" style="edgeStyle=orthogonalEdgeStyle;rounded=0;orthogonalLoop=1;jettySize=auto;html=1;entryX=0.828;entryY=-0.03;entryDx=0;entryDy=0;entryPerimeter=0;" parent="1" source="AkErmzsPLvzYnSsby9Ff-35" target="AkErmzsPLvzYnSsby9Ff-35" edge="1">
          <mxGeometry relative="1" as="geometry">
            <Array as="points">
              <mxPoint x="135" y="-70" />
              <mxPoint x="309" y="-70" />
            </Array>
          </mxGeometry>
        </mxCell>
        <mxCell id="-wOafuGMNbNYGkKjtve2-34" style="edgeStyle=orthogonalEdgeStyle;rounded=0;orthogonalLoop=1;jettySize=auto;html=1;entryX=0.875;entryY=0.5;entryDx=0;entryDy=0;entryPerimeter=0;" parent="1" source="AkErmzsPLvzYnSsby9Ff-21" target="AkErmzsPLvzYnSsby9Ff-31" edge="1">
          <mxGeometry relative="1" as="geometry" />
        </mxCell>
        <mxCell id="-wOafuGMNbNYGkKjtve2-37" value="&lt;b&gt;&lt;font style=&quot;font-size: 17px;&quot;&gt;Shape index location exist&lt;/font&gt;&lt;/b&gt;" style="text;html=1;align=center;verticalAlign=middle;resizable=0;points=[];autosize=1;strokeColor=none;fillColor=none;" parent="1" vertex="1">
          <mxGeometry x="462.5" y="170" width="240" height="30" as="geometry" />
        </mxCell>
        <mxCell id="-wOafuGMNbNYGkKjtve2-40" value="&lt;font style=&quot;font-size: 16px;&quot;&gt;&lt;b&gt;Evaluate the shape with the query&lt;/b&gt;&lt;/font&gt;" style="rounded=0;whiteSpace=wrap;html=1;" parent="1" vertex="1">
          <mxGeometry x="628.75" y="680" width="951.25" height="60" as="geometry" />
        </mxCell>
        <mxCell id="-wOafuGMNbNYGkKjtve2-41" style="edgeStyle=orthogonalEdgeStyle;rounded=0;orthogonalLoop=1;jettySize=auto;html=1;entryX=0.475;entryY=0.996;entryDx=0;entryDy=0;entryPerimeter=0;" parent="1" source="-wOafuGMNbNYGkKjtve2-38" target="AkErmzsPLvzYnSsby9Ff-24" edge="1">
          <mxGeometry relative="1" as="geometry" />
        </mxCell>
      </root>
    </mxGraphModel>
  </diagram>
</mxfile>
